<svg width="96" height="96" viewBox="0 0 96 96" fill="none" xmlns="http://www.w3.org/2000/svg">
  <circle cx="48" cy="48" r="42" fill="#F1ECE4"/>
  <path d="M61.8 67.9C47.7 72 33 63.7 28.9 49.6c-3-10.4.7-21.1 8.5-27.5 1.9-1.6 4.6.5 3.8 2.9-1.7 5.3-1.8 11.2-.1 16.9 3.4 11.7 13.7 19.3 25.1 19.7 2.5.1 3.5 3.3 1.4 4.7-1.8 1.1-3.7 1.7-5.8 1.6Z" stroke="#C6843D" stroke-width="4" stroke-linejoin="round"/>
  <path d="M65 22l2.8 6.2L74 31l-6.2 2.8L65 40l-2.8-6.2L56 31l6.2-2.8L65 22Z" fill="#C6843D"/>
  <path d="M76 42l1.8 4 4 1.8-4 1.8-1.8 4-1.8-4-4-1.8 4-1.8 1.8-4Z" fill="#C6843D"/>
</svg>
