<svg width="96" height="96" viewBox="0 0 96 96" fill="none" xmlns="http://www.w3.org/2000/svg">
  <circle cx="48" cy="48" r="42" fill="#F1ECE4"/>
  <path d="M53.8 20.5l2.1 7.2c1.4.5 2.8 1.1 4.1 1.9l6.7-3.5 7.3 7.3-3.5 6.7c.8 1.3 1.4 2.7 1.9 4.1l7.2 2.1v10.4l-7.2 2.1c-.5 1.4-1.1 2.8-1.9 4.1l3.5 6.7-7.3 7.3-6.7-3.5c-1.3.8-2.7 1.4-4.1 1.9l-2.1 7.2H43.4l-2.1-7.2c-1.4-.5-2.8-1.1-4.1-1.9l-6.7 3.5-7.3-7.3 3.5-6.7c-.8-1.3-1.4-2.7-1.9-4.1l-7.2-2.1V46.3l7.2-2.1c.5-1.4 1.1-2.8 1.9-4.1l-3.5-6.7 7.3-7.3 6.7 3.5c1.3-.8 2.7-1.4 4.1-1.9l2.1-7.2h10.4Z" stroke="#C6843D" stroke-width="4" stroke-linejoin="round"/>
  <circle cx="48.6" cy="51.5" r="11.5" stroke="#C6843D" stroke-width="4"/>
</svg>
