<svg width="96" height="96" viewBox="0 0 96 96" fill="none" xmlns="http://www.w3.org/2000/svg">
  <circle cx="48" cy="48" r="42" fill="#F1ECE4"/>
  <path d="M47.5 23c-14 0-25 10.7-25 24.3 0 13.9 11.5 25 25.9 25h5.2c3.4 0 5.3-3.9 3.1-6.5-.8-.9-1.2-2-1.2-3.2 0-3.1 2.5-5.6 5.6-5.6h4.6c4.6 0 8-4.2 7.2-8.7C70.8 34 60.6 23 47.5 23Z" stroke="#C6843D" stroke-width="4" stroke-linejoin="round"/>
  <circle cx="35.2" cy="41" r="4.3" fill="#C6843D"/>
  <circle cx="47.6" cy="34.5" r="4.3" fill="#C6843D"/>
  <circle cx="59.5" cy="42.5" r="4.3" fill="#C6843D"/>
  <circle cx="37.8" cy="56.8" r="4.3" fill="#C6843D"/>
</svg>
